<svg xmlns="http://www.w3.org/2000/svg" version="1.1" xmlns:xlink="http://www.w3.org/1999/xlink" xmlns:svgjs="http://svgjs.com/svgjs" width="512px" height="512px"><svg xmlns="http://www.w3.org/2000/svg" version="1.1" width="512px" height="512px" style="shape-rendering:geometricPrecision; text-rendering:geometricPrecision; image-rendering:optimizeQuality; fill-rule:evenodd; clip-rule:evenodd" xmlns:xlink="http://www.w3.org/1999/xlink">
<g><path style="opacity:0.994" fill="#b41100" d="M 118.5,117.5 C 155.333,115.204 188.667,124.704 218.5,146C 224.316,150.649 229.649,155.816 234.5,161.5C 221.392,176.729 208.058,191.729 194.5,206.5C 185.528,196.687 175.528,188.187 164.5,181C 141.841,170.855 120.508,173.188 100.5,188C 69.3044,214.609 60.1378,247.442 73,286.5C 88.9366,321.883 116.103,337.05 154.5,332C 175.336,324.878 187.67,310.378 191.5,288.5C 170.844,287.5 150.177,287.167 129.5,287.5C 129.5,270.5 129.5,253.5 129.5,236.5C 170.5,236.5 211.5,236.5 252.5,236.5C 254.445,266.843 250.945,296.51 242,325.5C 228.661,359.501 204.161,380.668 168.5,389C 99.6847,404.169 49.1847,380.669 17,318.5C 1.24279,282.215 -1.75721,244.882 8,206.5C 25.9561,153.376 62.7895,123.709 118.5,117.5 Z"></path></g>
<g><path style="opacity:0.992" fill="#b51100" d="M 283.5,121.5 C 358.834,121.333 434.167,121.5 509.5,122C 466.365,191.966 423.031,261.799 379.5,331.5C 418.828,332.5 458.161,332.833 497.5,332.5C 497.5,352.167 497.5,371.833 497.5,391.5C 419.164,391.833 340.83,391.5 262.5,390.5C 307.417,319.669 352.083,248.669 396.5,177.5C 358.839,176.5 321.173,176.167 283.5,176.5C 283.5,158.167 283.5,139.833 283.5,121.5 Z"></path></g>
</svg><style>@media (prefers-color-scheme: light) { :root { filter: none; } }
</style></svg>