<svg xmlns="http://www.w3.org/2000/svg" width="512" height="512" viewBox="0 0 512 512" version="1.1"><path d="M 113.462 119.039 C -53.178 138.083, -21.764 408.340, 145.328 393.193 C 216.695 386.723, 250.489 344.884, 252.706 260.250 L 253.289 238 191.644 238 L 130 238 130 262.500 L 130 287 161 287 C 178.050 287, 192 287.355, 192 287.790 C 192 335.238, 124.371 349.951, 88.120 310.389 C 22.891 239.204, 115.988 131.422, 185.273 197.911 C 190.666 203.086, 195.424 206.911, 195.845 206.411 C 196.267 205.910, 200.433 201.225, 205.103 196 C 209.773 190.775, 218.484 180.963, 224.460 174.196 L 235.326 161.893 229.965 156.465 C 203.154 129.316, 156.021 114.175, 113.462 119.039 M 284 149.500 L 284 177 340.500 177 C 371.575 177, 397 177.270, 397 177.601 C 397 177.932, 391.887 186.369, 385.639 196.351 C 379.390 206.333, 354.481 246.225, 330.286 285 C 306.090 323.775, 281.053 363.510, 274.647 373.299 C 268.241 383.089, 263 391.301, 263 391.549 C 263 391.797, 315.875 392, 380.500 392 L 498 392 498 362.500 L 498 333 439 333 C 406.550 333, 380 332.728, 380 332.395 C 380 331.692, 389.318 316.553, 413.481 278 C 422.960 262.875, 438.590 237.900, 448.215 222.500 C 457.839 207.100, 468.178 190.675, 471.189 186 C 476.343 177.998, 495.249 146.899, 505.385 129.750 L 509.966 122 396.983 122 L 284 122 284 149.500" stroke="none" fill="#b51200" fill-rule="evenodd"/><path d="M 113.462 119.039 C -53.178 138.083, -21.764 408.340, 145.328 393.193 C 216.695 386.723, 250.489 344.884, 252.706 260.250 L 253.289 238 191.644 238 L 130 238 130 262.500 L 130 287 161 287 C 178.050 287, 192 287.355, 192 287.790 C 192 335.238, 124.371 349.951, 88.120 310.389 C 22.891 239.204, 115.988 131.422, 185.273 197.911 C 190.666 203.086, 195.424 206.911, 195.845 206.411 C 196.267 205.910, 200.433 201.225, 205.103 196 C 209.773 190.775, 218.484 180.963, 224.460 174.196 L 235.326 161.893 229.965 156.465 C 203.154 129.316, 156.021 114.175, 113.462 119.039 M 284 149.500 L 284 177 340.500 177 C 371.575 177, 397 177.270, 397 177.601 C 397 177.932, 391.887 186.369, 385.639 196.351 C 379.390 206.333, 354.481 246.225, 330.286 285 C 306.090 323.775, 281.053 363.510, 274.647 373.299 C 268.241 383.089, 263 391.301, 263 391.549 C 263 391.797, 315.875 392, 380.500 392 L 498 392 498 362.500 L 498 333 439 333 C 406.550 333, 380 332.728, 380 332.395 C 380 331.692, 389.318 316.553, 413.481 278 C 422.960 262.875, 438.590 237.900, 448.215 222.500 C 457.839 207.100, 468.178 190.675, 471.189 186 C 476.343 177.998, 495.249 146.899, 505.385 129.750 L 509.966 122 396.983 122 L 284 122 284 149.500" stroke="none" fill="#b51200" fill-rule="evenodd"/></svg>
